<?xml version="1.0" encoding="UTF-8"?>
<svg version="1.1" xmlns="http://www.w3.org/2000/svg" width="1254" height="1254">
<path d="M0 0 C413.82 0 827.64 0 1254 0 C1254 413.82 1254 827.64 1254 1254 C840.18 1254 426.36 1254 0 1254 C0 840.18 0 426.36 0 0 Z " fill="#FDFCFC" transform="translate(0,0)"/>
<path d="M0 0 C1.38251953 0.76183594 1.38251953 0.76183594 2.79296875 1.5390625 C5.89618925 3.30634867 8.94714568 5.14713262 12 7 C14.49504075 8.48760389 16.99700667 9.96332407 19.5 11.4375 C20.19907471 11.85008057 20.89814941 12.26266113 21.6184082 12.68774414 C27.90677948 16.38618784 34.24328562 19.99801202 40.58395386 23.60586548 C51.90585684 30.04821328 63.14636345 36.61032813 74.33862305 43.27539062 C81.92666573 47.78831134 89.55902151 52.21240942 97.23583984 56.57226562 C103.70664066 60.25006636 110.13944537 63.98950938 116.5625 67.75 C125.30396735 72.86437899 134.07723131 77.92074079 142.875 82.9375 C155.19000056 89.96017353 167.47671998 97.03067163 179.75146484 104.12353516 C184.20022376 106.69329023 188.6509176 109.25968501 193.1015625 111.82617188 C207.683197 120.23536976 222.26393939 128.64551943 236.796875 137.13867188 C237.81265625 137.73228516 238.8284375 138.32589844 239.875 138.9375 C240.89078125 139.53111328 241.9065625 140.12472656 242.953125 140.73632812 C249.48887181 144.5502365 256.04738671 148.32133885 262.625 152.0625 C270.65395969 156.63175892 278.62143795 161.29743521 286.56787109 166.00854492 C301.79321622 175.03329938 317.10157363 183.9147251 332.4375 192.75 C340.73535074 197.53068461 349.01581151 202.33738534 357.26171875 207.20703125 C361.781753 209.87533891 366.31167651 212.52668976 370.84223938 215.17706299 C374.0484175 217.05295374 377.25336244 218.93088128 380.45532227 220.81396484 C381.69676747 221.5439621 382.93822238 222.27394286 384.1796875 223.00390625 C384.77984177 223.35684753 385.37999603 223.70978882 385.99833679 224.07342529 C389.27930129 225.99989764 392.57197548 227.90273093 395.8828125 229.77734375 C409.7290027 237.66945553 416.93996429 246.46828172 423 261 C424.16455182 265.39011511 424.1429014 269.73680667 424.13422108 274.24705505 C424.13657331 275.077921 424.13892554 275.90878695 424.14134905 276.76483065 C424.14802939 279.5612511 424.14758111 282.35762498 424.14717102 285.15405273 C424.15047025 287.1743807 424.15419594 289.19470802 424.1583125 291.21503448 C424.16833395 296.77681349 424.17204953 302.3385817 424.17470181 307.90036845 C424.17860443 313.89513657 424.1881828 319.88989615 424.19691467 325.88465881 C424.21574596 339.68242808 424.22593537 353.48019797 424.23437535 367.27797642 C424.23858324 374.09811259 424.24380506 380.91824788 424.24905988 387.73838331 C424.26694993 411.08973683 424.28194518 434.4410906 424.28938007 457.79244995 C424.28985483 459.25825926 424.29033072 460.72406856 424.29080774 462.18987787 C424.2911623 463.28022996 424.2911623 463.28022996 424.29152403 464.39260937 C424.29272521 468.0753789 424.29394066 471.75814844 424.29516602 475.44091797 C424.29540617 476.17177143 424.29564632 476.90262489 424.29589374 477.65562543 C424.30378473 501.34575547 424.32721249 525.03583541 424.35972196 548.72594358 C424.39403888 573.77897094 424.41373296 598.831969 424.41702431 623.88502026 C424.41744184 626.63665455 424.41792141 629.38828882 424.41844749 632.1399231 C424.41857069 632.81744098 424.41869388 633.49495887 424.4188208 634.1930076 C424.42115056 645.08504653 424.43679799 655.97702717 424.45728934 666.86904534 C424.47757016 677.82318329 424.48268121 688.77726088 424.47351871 699.73141557 C424.46897283 705.66311289 424.4708773 711.59462136 424.49028015 717.5262928 C424.50790354 722.96095661 424.50692047 728.3952937 424.49138286 733.82996094 C424.48900557 735.79167577 424.49333656 737.75341317 424.50521151 739.71509349 C424.59868568 756.18204682 422.95215278 769.8514677 410.84716797 782.1953125 C404.77360422 787.81679054 398.54456974 791.8865138 391.25 795.75 C389.02613009 796.96131615 386.80349568 798.17490301 384.58203125 799.390625 C383.47553223 799.99326172 382.3690332 800.59589844 381.22900391 801.21679688 C376.40633464 803.88009464 371.66855641 806.67801174 366.9375 809.5 C365.12508963 810.57827566 363.31258916 811.6563999 361.5 812.734375 C360.59765625 813.27126953 359.6953125 813.80816406 358.765625 814.36132812 C354.00417434 817.18255489 349.22056758 819.96563197 344.4375 822.75 C335.44936621 827.98480675 326.47160878 833.23694936 317.5 838.5 C305.65021825 845.45067485 293.7887467 852.3810582 281.91943359 859.29833984 C276.9454882 862.19752026 271.9728183 865.09888692 267 868 C265.0000059 869.16667678 263.00000591 870.33334346 261 871.5 C259.515 872.36625 259.515 872.36625 258 873.25 C253.5 875.875 253.5 875.875 249 878.5 C248.01016113 879.07741943 247.02032227 879.65483887 246.00048828 880.24975586 C243.99890789 881.41731728 241.99728023 882.58479764 239.99560547 883.75219727 C235.01939608 886.65451416 230.04399545 889.55819916 225.0703125 892.46484375 C214.58508088 898.59034933 204.08510792 904.68889236 193.5625 910.75 C185.8177373 915.21133669 178.08622723 919.69234244 170.38867188 924.23461914 C152.64617836 934.70346024 134.80860929 945.00837687 116.95947266 955.29394531 C105.76628115 961.74651273 94.59380893 968.23388585 83.4375 974.75 C73.88394172 980.32993404 64.30700282 985.86824023 54.71923828 991.38916016 C48.40213325 995.02925398 42.09746406 998.68945993 35.8059082 1002.37353516 C31.86452218 1004.6796687 27.91698356 1006.97514552 23.96875 1009.26953125 C21.95297912 1010.44451348 19.940046 1011.62437494 17.9296875 1012.80859375 C-8.11094762 1028.13630936 -8.11094762 1028.13630936 -23.625 1028.5 C-24.62829346 1028.52864136 -24.62829346 1028.52864136 -25.65185547 1028.55786133 C-37.1924583 1028.40523749 -47.09104381 1021.97736485 -56.75 1016.3125 C-58.00792066 1015.58340953 -59.2662251 1014.85498082 -60.52490234 1014.12719727 C-67.73341943 1009.95006481 -74.89577691 1005.69906567 -82.01953125 1001.37890625 C-92.99529271 994.77250438 -104.17418213 988.49501381 -115.28222656 982.11474609 C-127.36092772 975.17580106 -139.40536538 968.18823276 -151.375 961.0625 C-161.76324276 954.87934451 -172.22271612 948.83721485 -182.72998047 942.85961914 C-190.18094021 938.61948762 -197.60266282 934.33300815 -205 930 C-213.77971897 924.85809875 -222.59760978 919.78738861 -231.4375 914.75 C-239.51241186 910.14810311 -247.57033742 905.5225176 -255.56787109 900.78710938 C-261.87172724 897.05993325 -268.2162381 893.40439917 -274.5625 889.75 C-283.0564903 884.85842108 -291.53770677 879.94621565 -300 875 C-308.31749095 870.1389237 -316.65208881 865.30864465 -325 860.5 C-342.83702072 850.22247225 -360.60211626 839.82284916 -378.35992432 829.40930176 C-386.63221454 824.55842358 -394.90591521 819.71000128 -403.1875 814.875 C-404.14358154 814.31675537 -405.09966309 813.75851074 -406.0847168 813.18334961 C-411.34076098 810.11905246 -416.60651167 807.07224223 -421.8828125 804.04296875 C-422.4623317 803.70992737 -423.04185089 803.37688599 -423.63893127 803.03375244 C-426.42761451 801.43120035 -429.21763162 799.83109342 -432.01049805 798.23583984 C-448.75441832 788.62415618 -462.40895844 780.2729841 -468.1547842 760.98175359 C-470.04748916 753.10696731 -469.54775622 744.83696363 -469.50793457 736.79452515 C-469.51254925 734.75761394 -469.51890597 732.72070607 -469.52684355 730.68380511 C-469.54348162 725.113346 -469.5353156 719.54316237 -469.52289867 713.9727025 C-469.51382802 707.9549225 -469.52782784 701.93718902 -469.53881836 695.91941833 C-469.55556022 684.82168619 -469.55413352 673.72402951 -469.54317249 662.62629689 C-469.53309649 652.37391864 -469.53048988 642.1215724 -469.53526306 631.86919022 C-469.53572137 630.84772175 -469.53572137 630.84772175 -469.53618894 629.80561756 C-469.53743436 627.04108327 -469.53870797 624.27654898 -469.540028 621.51201472 C-469.5522535 595.59915815 -469.54118633 569.68635718 -469.51964041 543.77350919 C-469.50065485 520.76499198 -469.50236129 497.75656332 -469.52148438 474.74804688 C-469.54291364 448.87851943 -469.55139063 423.00904107 -469.53903532 397.13950598 C-469.53775251 394.38073008 -469.53650114 391.62195417 -469.53526306 388.86317825 C-469.53494675 388.18393122 -469.53463044 387.5046842 -469.53430455 386.80485392 C-469.52975951 376.55897985 -469.5350666 366.31314133 -469.54518127 356.06727219 C-469.55662636 344.41586245 -469.55335722 332.76453697 -469.5320583 321.11313652 C-469.52155101 315.16949102 -469.51742088 309.2260252 -469.53065491 303.28238106 C-469.54259066 297.83948785 -469.53599635 292.39694055 -469.5147447 286.95407863 C-469.51028376 284.9872624 -469.51253342 283.02041684 -469.52224785 281.05361955 C-469.6083562 262.16853277 -469.6083562 262.16853277 -465 253 C-464.47019531 251.94425781 -463.94039062 250.88851562 -463.39453125 249.80078125 C-462.87246094 248.97964844 -462.35039062 248.15851563 -461.8125 247.3125 C-461.30332031 246.48363281 -460.79414063 245.65476562 -460.26953125 244.80078125 C-454.16633808 237.26895766 -446.77305195 232.35463374 -438.3125 227.8125 C-436.26456466 226.68421413 -434.21771546 225.55395492 -432.171875 224.421875 C-431.14126953 223.85404297 -430.11066406 223.28621094 -429.04882812 222.70117188 C-424.33672173 220.07193121 -419.69828981 217.32345075 -415.0625 214.5625 C-413.23582726 213.47761168 -411.40900303 212.3929784 -409.58203125 211.30859375 C-408.66760254 210.7657373 -407.75317383 210.22288086 -406.81103516 209.66357422 C-387.15199985 198.02933186 -367.33501263 186.65980506 -347.52734375 175.28125 C-336.51459523 168.94925251 -325.54058928 162.56074114 -314.625 156.0625 C-304.23815537 149.88017668 -293.77983848 143.83934117 -283.27441406 137.86181641 C-274.80072729 133.03903836 -266.36711212 128.15147741 -257.95214844 123.22705078 C-250.5059234 118.87164143 -243.03824183 114.55452631 -235.5625 110.25 C-228.52389385 106.19630136 -221.4925587 102.13267686 -214.5 98 C-207.50743939 93.86732201 -200.47601308 89.80386293 -193.4375 85.75 C-180.9314971 78.54560223 -168.4566972 71.28927837 -156 64 C-155.42940857 63.66615295 -154.85881714 63.33230591 -154.27093506 62.98834229 C-141.43521886 55.47791006 -128.60550036 47.95804273 -115.8125 40.375 C-106.86178599 35.0724051 -97.85925973 29.86273814 -88.8425293 24.67333984 C-79.37665422 19.22420863 -69.9383932 13.72868656 -60.5078125 8.21875 C-59.61481445 7.69804932 -58.72181641 7.17734863 -57.80175781 6.64086914 C-55.80226855 5.46985421 -53.80730635 4.29109523 -51.81542969 3.10717773 C-50.76000977 2.48270752 -49.70458984 1.8582373 -48.6171875 1.21484375 C-47.66183105 0.64628662 -46.70647461 0.07772949 -45.72216797 -0.50805664 C-32.19334608 -7.92282171 -13.26543297 -7.56379246 0 0 Z " fill="#5E4BEE" transform="translate(650,89)"/>
<path d="M0 0 C2.47042494 -0.00435361 4.94084853 -0.00953891 7.41127014 -0.01548767 C13.39752682 -0.02744056 19.38371755 -0.03003708 25.3699801 -0.02768741 C30.24408925 -0.02589545 35.11818487 -0.02767258 39.9922924 -0.03191185 C40.68927412 -0.03250704 41.38625583 -0.03310223 42.10435821 -0.03371545 C43.52089438 -0.03492737 44.93743054 -0.03614151 46.35396671 -0.03735783 C59.60657571 -0.04820711 72.85915919 -0.04608382 86.11176961 -0.03997298 C98.18912944 -0.03481121 110.26640842 -0.04604437 122.34375227 -0.0650712 C134.79139109 -0.08452856 147.23899183 -0.09269152 159.68664593 -0.08894795 C166.65622712 -0.08704718 173.62573965 -0.08941217 180.5953083 -0.10366249 C187.1577035 -0.11694607 193.71996524 -0.11420997 200.28236961 -0.1012516 C202.67465903 -0.09890596 205.06696007 -0.10154714 207.45923615 -0.10987473 C251.10827798 -0.25071863 287.20414859 11.03098092 319.11499023 41.6496582 C332.93620364 55.92568302 342.08879429 72.95535739 349.42749023 91.2746582 C349.82838867 92.2543457 350.22928711 93.2340332 350.64233398 94.2434082 C357.66791512 113.11968658 356.87620462 133.62346998 356.75006104 153.44158936 C356.73659964 156.30951963 356.74181307 159.17729218 356.74718952 162.04523945 C356.75056929 164.86040327 356.74382688 167.67547532 356.73406029 170.49062157 C356.72848827 172.43720618 356.72962501 174.38380648 356.73103333 176.33039856 C356.46231475 210.60074692 344.97490212 240.87907865 323.42749023 267.2746582 C322.79842773 268.04680664 322.16936523 268.81895508 321.52124023 269.61450195 C301.02492398 293.8840037 268.70831073 309.38486537 237.52102661 313.03100586 C231.54956114 313.50132894 225.58328675 313.33806164 219.59936523 313.22387695 C218.25876506 313.20496933 216.91815265 313.18691075 215.57752991 313.16967773 C204.31738638 313.01497757 204.31738638 313.01497757 199.03540039 312.80517578 C179.05916182 312.04734823 166.21022962 315.11138826 150.69647217 328.36233521 C147.8021704 330.80168465 144.78933977 332.88434957 141.64233398 334.9855957 C133.27030808 340.79691792 124.90418914 346.61257056 116.62695312 352.55834961 C110.02274402 357.29655766 103.35356515 361.94194634 96.68920898 366.5949707 C93.10136117 369.1006199 89.5215471 371.61722968 85.94702148 374.1418457 C84.60728271 375.08592285 84.60728271 375.08592285 83.24047852 376.04907227 C81.53792314 377.24912524 79.83697438 378.45146208 78.13793945 379.65649414 C64.57464213 389.20114086 64.57464213 389.20114086 57.42749023 388.2746582 C52.73507721 386.2012664 49.71429469 382.84826712 47.42749023 378.2746582 C47.33588686 376.21172835 47.30997844 374.14576935 47.31396484 372.08081055 C47.31404037 370.77961273 47.31411591 369.47841492 47.31419373 368.13778687 C47.31930077 366.71205609 47.32451677 365.28632571 47.32983398 363.8605957 C47.33169876 362.4061386 47.33312238 360.95168086 47.3341217 359.4972229 C47.33794218 355.66673045 47.34776847 351.83627583 47.35882568 348.00579834 C47.36904988 344.09802767 47.37362149 340.19025089 47.37866211 336.2824707 C47.38939115 328.61318261 47.40646195 320.9439257 47.42749023 313.2746582 C46.5072406 313.28354065 45.58699097 313.2924231 44.63885498 313.30157471 C35.87431498 313.38244409 27.10990412 313.4429846 18.3450737 313.48190689 C13.8412939 313.50259135 9.33782783 313.53054841 4.83422852 313.57641602 C-18.82062661 313.81092868 -40.46429239 313.83815944 -62.57250977 304.2746582 C-63.52770508 303.91887695 -64.48290039 303.5630957 -65.46704102 303.1965332 C-78.99887188 298.05190139 -90.69273544 289.68622769 -101.57250977 280.2746582 C-102.65444787 279.41872495 -103.73753194 278.56423503 -104.82250977 277.7121582 C-108.44611605 274.50032536 -111.4914304 271.00376573 -114.57250977 267.2746582 C-115.18618408 266.54545166 -115.18618408 266.54545166 -115.81225586 265.80151367 C-128.54614474 250.59819153 -137.72801311 233.60663007 -143.32250977 214.5246582 C-143.52134766 213.87126465 -143.72018555 213.21787109 -143.92504883 212.54467773 C-148.60177757 195.56646781 -147.91945332 177.54322011 -147.88818359 160.09887695 C-147.88354883 157.30281503 -147.89050003 154.50718773 -147.90869141 151.71118164 C-148.17968467 109.66201289 -139.75298364 72.29156525 -109.52954102 41.23168945 C-108.54642495 40.24345799 -107.56083561 39.25767938 -106.57250977 38.2746582 C-105.68950195 37.39165039 -104.80649414 36.50864258 -103.89672852 35.59887695 C-75.15234191 8.21718719 -38.53937376 -0.0450257 0 0 Z " fill="#FDFDFD" transform="translate(522.572509765625,438.725341796875)"/>
<path d="M0 0 C1.10896585 -0.00573832 1.10896585 -0.00573832 2.24033505 -0.01159257 C4.7067698 -0.02187516 7.17296969 -0.01793951 9.63941956 -0.01396179 C11.41217768 -0.01831087 13.18493392 -0.02349468 14.95768738 -0.02944946 C19.76552121 -0.04282909 24.57327639 -0.04341932 29.38112521 -0.04088616 C33.39706334 -0.03981582 37.4129856 -0.0447014 41.42892033 -0.04949158 C50.90388399 -0.06058303 60.37880801 -0.06102611 69.85377502 -0.05497742 C79.62405749 -0.04893607 89.39419601 -0.06125358 99.16445392 -0.08254749 C107.55783011 -0.10016699 115.95116049 -0.10616432 124.34455448 -0.10290974 C129.35538813 -0.10109742 134.36611907 -0.10372813 139.37693596 -0.11762428 C144.08918726 -0.13020377 148.80121419 -0.12825734 153.51346207 -0.11521339 C155.24080163 -0.11284839 156.96815699 -0.11557957 158.69547844 -0.12383652 C161.05766176 -0.13431227 163.41909335 -0.1261972 165.78125 -0.11352539 C166.80091855 -0.12458682 166.80091855 -0.12458682 167.84118646 -0.13587171 C174.75993716 -0.058054 179.97498558 2.37521759 185.14161682 6.94819641 C186.2302301 7.88212219 186.2302301 7.88212219 187.34083557 8.83491516 C194.29879582 16.82177896 194.06249393 24.9450824 194.02052307 35.00288391 C194.02576751 36.53691482 194.03204697 38.07094251 194.03930664 39.60496521 C194.04967815 42.81083919 194.04519793 46.01626844 194.03053284 49.22212219 C194.01336789 53.30636386 194.03682731 57.38919554 194.07202244 61.47327995 C194.09411263 64.63917654 194.09252687 67.80474193 194.08425713 70.97069168 C194.08344358 72.47521128 194.09019143 73.97975668 194.10502815 75.48420334 C194.18797815 85.41795155 193.51972049 93.82593016 186.46438599 101.39543152 C180.28367438 107.30565914 174.31199227 109.63266969 165.80143738 109.64837646 C165.06268352 109.653762 164.32392966 109.65914754 163.56278932 109.66469628 C161.10402906 109.67892659 158.64581094 109.67188454 156.18702698 109.66474915 C154.41736419 109.67045534 152.64770509 109.67742057 150.87805176 109.68554688 C146.08250715 109.7034669 141.28714564 109.70231193 136.49157763 109.69660449 C132.48322689 109.69351062 128.47491123 109.69960738 124.46656549 109.70564324 C115.00730805 109.71968339 105.54814093 109.71813172 96.08888245 109.70674133 C86.34186076 109.69526353 76.59511433 109.70933131 66.84812891 109.73613781 C58.46912821 109.75831621 50.09021378 109.76492727 41.71118581 109.7590614 C36.71145433 109.75569539 31.71189924 109.75808308 26.71219254 109.77531242 C22.00888535 109.79081333 17.30598486 109.78679116 12.60269356 109.76800728 C10.88103245 109.76432994 9.15934099 109.76740484 7.4377079 109.77789307 C-2.55515692 109.83410058 -10.74765124 109.59344116 -19.03416443 103.40132141 C-19.63615662 102.77741516 -20.2381488 102.15350891 -20.85838318 101.51069641 C-21.47326599 100.89710266 -22.0881488 100.28350891 -22.72166443 99.65132141 C-29.01173781 91.40822739 -29.15523268 83.93829403 -29.11228943 73.95600891 C-29.11753437 72.46681838 -29.12381401 70.97763117 -29.131073 69.4884491 C-29.14144258 66.3767273 -29.13696721 63.26546375 -29.12229919 60.15376282 C-29.10513506 56.19057347 -29.12859336 52.2288373 -29.1637888 48.26581001 C-29.18588518 45.19255698 -29.18429178 42.11964496 -29.17602348 39.04633713 C-29.17521026 37.58647444 -29.18195181 36.1265851 -29.19679451 34.66679764 C-29.28621056 24.28081404 -28.03092908 16.4184992 -21.04588318 8.38569641 C-20.22088318 7.68444641 -19.39588318 6.98319641 -18.54588318 6.26069641 C-17.33932068 5.17788391 -17.33932068 5.17788391 -16.10838318 4.07319641 C-11.05856739 0.50137549 -6.04055643 -0.03347345 0 0 Z " fill="#5F4DF3" transform="translate(543.5458831787109,539.7393035888672)"/>
<path d="M0 0 C0.66 0.33 1.32 0.66 2 1 C-9.92290916 8.22253151 -21.94433167 15.27515988 -34.01318359 22.25097656 C-36.1227904 23.48632258 -38.21828601 24.7459188 -40.30322266 26.02246094 C-41.91076416 26.99747559 -41.91076416 26.99747559 -43.55078125 27.9921875 C-44.52313721 28.59144043 -45.49549316 29.19069336 -46.49731445 29.80810547 C-49 31 -49 31 -52 30 C-50.68 29.67 -49.36 29.34 -48 29 C-48 28.34 -48 27.68 -48 27 C-45.69 26.34 -43.38 25.68 -41 25 C-41 24.34 -41 23.68 -41 23 C-38.69 22.34 -36.38 21.68 -34 21 C-34 20.34 -34 19.68 -34 19 C-32.35 18.67 -30.7 18.34 -29 18 C-29 17.34 -29 16.68 -29 16 C-27.35 15.67 -25.7 15.34 -24 15 C-24 14.34 -24 13.68 -24 13 C-21 11 -21 11 -17 11 C-17 10.34 -17 9.68 -17 9 C-14.69 8.34 -12.38 7.68 -10 7 C-10 6.34 -10 5.68 -10 5 C-8.35 4.67 -6.7 4.34 -5 4 C-5 3.34 -5 2.68 -5 2 C-2.625 0.9375 -2.625 0.9375 0 0 Z " fill="#5239E2" transform="translate(1019,895)"/>
<path d="M0 0 C0.5775 0.226875 1.155 0.45375 1.75 0.6875 C-1.96469033 2.99420287 -5.68715872 5.2875128 -9.41894531 7.56640625 C-10.61301914 8.29749785 -11.80517806 9.03172904 -12.99511719 9.76953125 C-14.61568545 10.77287438 -16.24518398 11.7617497 -17.875 12.75 C-19.31746094 13.63365234 -19.31746094 13.63365234 -20.7890625 14.53515625 C-23.25 15.6875 -23.25 15.6875 -26.25 14.6875 C-25.59 14.6875 -24.93 14.6875 -24.25 14.6875 C-24.25 14.0275 -24.25 13.3675 -24.25 12.6875 C-18.5 9.6875 -18.5 9.6875 -16.25 9.6875 C-15.92 9.0275 -15.59 8.3675 -15.25 7.6875 C-13.84322608 6.82289047 -12.39927451 6.01796991 -10.9375 5.25 C-8.47127724 3.949628 -6.34293622 2.76586496 -4.20703125 0.96484375 C-2.25 -0.3125 -2.25 -0.3125 0 0 Z " fill="#5038E0" transform="translate(959.25,930.3125)"/>
<path d="M0 0 C-4.32539938 2.67979631 -8.6597796 5.34427073 -13 8 C-13.77601563 8.48082031 -14.55203125 8.96164062 -15.3515625 9.45703125 C-16.86463087 10.36809157 -18.42732829 11.19619001 -20 12 C-20.66 11.67 -21.32 11.34 -22 11 C-20.35 10.34 -18.7 9.68 -17 9 C-17 8.34 -17 7.68 -17 7 C-16.175 6.608125 -15.35 6.21625 -14.5 5.8125 C-11.08969016 4.04644669 -7.99302973 2.06030443 -4.83203125 -0.109375 C-3 -1 -3 -1 0 0 Z " fill="#523BE0" transform="translate(691,1088)"/>
<path d="M0 0 C0.66 0.66 1.32 1.32 2 2 C0.41925436 2.81752303 -1.16471223 3.62881997 -2.75 4.4375 C-3.63171875 4.88996094 -4.5134375 5.34242187 -5.421875 5.80859375 C-9.51264657 7.69902607 -12.75406111 8.12165709 -17.25 8.0625 C-18.14203125 8.05347656 -19.0340625 8.04445313 -19.953125 8.03515625 C-20.62859375 8.02355469 -21.3040625 8.01195312 -22 8 C-22 7.67 -22 7.34 -22 7 C-21.39414062 6.89042969 -20.78828125 6.78085938 -20.1640625 6.66796875 C-9.24711278 5.11993816 -9.24711278 5.11993816 0 0 Z " fill="#4C32DD" transform="translate(651,1108)"/>
<path d="M0 0 C0.66 0.66 1.32 1.32 2 2 C0.09273249 3.20253816 -1.8262012 4.38658949 -3.75 5.5625 C-4.81734375 6.22378906 -5.8846875 6.88507813 -6.984375 7.56640625 C-10 9 -10 9 -14 8 C-9.38 5.36 -4.76 2.72 0 0 Z " fill="#6F61FB" transform="translate(456,175)"/>
<path d="M0 0 C0.66 0.66 1.32 1.32 2 2 C0.09273249 3.20253816 -1.8262012 4.38658949 -3.75 5.5625 C-4.81734375 6.22378906 -5.8846875 6.88507813 -6.984375 7.56640625 C-10 9 -10 9 -14 8 C-9.38 5.36 -4.76 2.72 0 0 Z " fill="#7062FC" transform="translate(482,160)"/>
<path d="M0 0 C-2.18517099 2.40575607 -4.25919671 3.79535581 -7.1875 5.1875 C-7.90292969 5.53167969 -8.61835937 5.87585938 -9.35546875 6.23046875 C-9.89816406 6.48441406 -10.44085937 6.73835937 -11 7 C-11.66 6.34 -12.32 5.68 -13 5 C-11.40377344 3.96679519 -9.79770894 2.94877571 -8.1875 1.9375 C-7.29417969 1.36902344 -6.40085937 0.80054688 -5.48046875 0.21484375 C-3 -1 -3 -1 0 0 Z " fill="#7467FC" transform="translate(539,129)"/>
<path d="M0 0 C6.6 0 13.2 0 20 0 C15.73666574 3.1975007 14.9533776 3.25621457 9.9609375 2.55273438 C9.23132813 2.43220703 8.50171875 2.31167969 7.75 2.1875 C7.00492188 2.07857422 6.25984375 1.96964844 5.4921875 1.85742188 C3.65909913 1.58715885 1.82916635 1.29564433 0 1 C0 0.67 0 0.34 0 0 Z " fill="#786DFA" transform="translate(618,84)"/>
<path d="M0 0 C0.66 0.33 1.32 0.66 2 1 C-1.87024733 4.38646642 -6.10132476 7.32953125 -11 9 C-11.99 8.67 -12.98 8.34 -14 8 C-11.7136988 6.63597957 -9.42178251 5.28365726 -7.125 3.9375 C-6.47402344 3.54755859 -5.82304688 3.15761719 -5.15234375 2.75585938 C-3.46934275 1.77555467 -1.73703801 0.88101568 0 0 Z " fill="#553EE1" transform="translate(883,974)"/>
<path d="M0 0 C-1.23263349 3.69790046 -2.20052451 3.9354846 -5.5625 5.6875 C-6.80193359 6.34298828 -6.80193359 6.34298828 -8.06640625 7.01171875 C-8.70449219 7.33785156 -9.34257813 7.66398437 -10 8 C-10.66 7.34 -11.32 6.68 -12 6 C-10.37829621 4.99466333 -8.75252763 3.99588093 -7.125 3 C-5.76761719 2.1646875 -5.76761719 2.1646875 -4.3828125 1.3125 C-2 0 -2 0 0 0 Z " fill="#776AFB" transform="translate(564,113)"/>
<path d="M0 0 C0.99 0.33 1.98 0.66 3 1 C1.61133677 1.9893091 0.21370149 2.96603078 -1.1875 3.9375 C-1.96480469 4.48277344 -2.74210938 5.02804687 -3.54296875 5.58984375 C-6.07950299 7.0456289 -8.1218182 7.59613435 -11 8 C-7.47072234 5.09353605 -3.94769379 2.31712462 0 0 Z " fill="#4F37E0" transform="translate(925,949)"/>
<path d="M0 0 C0.66 0.33 1.32 0.66 2 1 C1.01 2.485 1.01 2.485 0 4 C-0.99 3.67 -1.98 3.34 -3 3 C-2.01 2.01 -1.02 1.02 0 0 Z M-5 4 C-4.34 4 -3.68 4 -3 4 C-3.75 5.9375 -3.75 5.9375 -5 8 C-7.125 8.75 -7.125 8.75 -9 9 C-7.71937515 7.2925002 -6.38232443 5.62626404 -5 4 Z " fill="#7769F9" transform="translate(201,323)"/>
<path d="M0 0 C-1.0975223 2.99324263 -1.67682892 3.84610901 -4.625 5.25 C-5.40875 5.4975 -6.1925 5.745 -7 6 C-7.66 5.34 -8.32 4.68 -9 4 C-2.25 0 -2.25 0 0 0 Z " fill="#7668FB" transform="translate(212,318)"/>
<path d="M0 0 C0 0.66 0 1.32 0 2 C-0.99 2 -1.98 2 -3 2 C-3.33 2.99 -3.66 3.98 -4 5 C-6.5625 6.1875 -6.5625 6.1875 -9 7 C-9 6.01 -9 5.02 -9 4 C-2.25 0 -2.25 0 0 0 Z " fill="#7568FB" transform="translate(229,308)"/>
<path d="M0 0 C0.66 0.33 1.32 0.66 2 1 C0.90716423 2.03295436 -0.19970579 3.05107835 -1.3125 4.0625 C-1.92738281 4.63097656 -2.54226563 5.19945312 -3.17578125 5.78515625 C-3.77777344 6.18605469 -4.37976563 6.58695313 -5 7 C-5.99 6.67 -6.98 6.34 -8 6 C-5.36 4.02 -2.72 2.04 0 0 Z " fill="#5941E6" transform="translate(677,764)"/>
<path d="M0 0 C3.79303725 1.00193437 6.71536341 1.81024227 10 4 C10 4.66 10 5.32 10 6 C5.56909529 4.79157144 3.01887244 3.48331435 0 0 Z " fill="#5A43DC" transform="translate(601,1108)"/>
<path d="M0 0 C1.31618998 0.78551657 2.62785228 1.5786237 3.9375 2.375 C4.66839844 2.81585937 5.39929688 3.25671875 6.15234375 3.7109375 C8 5 8 5 9 7 C4.56909529 5.79157144 2.01887244 4.48331435 -1 1 C-0.67 0.67 -0.34 0.34 0 0 Z " fill="#573EDB" transform="translate(576,1092)"/>
<path d="M0 0 C-1.0975223 2.99324263 -1.67682892 3.84610901 -4.625 5.25 C-5.40875 5.4975 -6.1925 5.745 -7 6 C-7.66 5.34 -8.32 4.68 -9 4 C-2.25 0 -2.25 0 0 0 Z " fill="#7467FB" transform="translate(583,102)"/>
<path d="M0 0 C3.94120709 0.56302958 6.7508723 1.6791945 10 4 C10 4.66 10 5.32 10 6 C6.40992874 4.66654496 3.20429093 3.1056769 0 1 C0 0.67 0 0.34 0 0 Z " fill="#5740DD" transform="translate(563,1086)"/>
<path d="M0 0 C0 0.66 0 1.32 0 2 C-5.17578125 5.22265625 -5.17578125 5.22265625 -7 6 C-7.99 5.67 -8.98 5.34 -10 5 C-8.71186658 4.16121545 -7.41936744 3.32913217 -6.125 2.5 C-5.40570312 2.0359375 -4.68640625 1.571875 -3.9453125 1.09375 C-2 0 -2 0 0 0 Z " fill="#593FE2" transform="translate(864,986)"/>
<path d="M0 0 C3.3 1.65 6.6 3.3 10 5 C6 6 6 6 4.078125 5.22265625 C2.38541667 4.1484375 0.69270833 3.07421875 -1 2 C-0.67 1.34 -0.34 0.68 0 0 Z " fill="#6D5DFB" transform="translate(709,124)"/>
<path d="M0 0 C0 0.66 0 1.32 0 2 C-0.9075 2.144375 -1.815 2.28875 -2.75 2.4375 C-5.21476956 2.86409473 -7.58847107 3.35074221 -10 4 C-9.67 3.01 -9.34 2.02 -9 1 C-6.03421164 -0.16513114 -3.15436364 -0.08762121 0 0 Z " fill="#553EE7" transform="translate(785,747)"/>
<path d="M0 0 C2.31 0.66 4.62 1.32 7 2 C7 2.66 7 3.32 7 4 C7.99 4.33 8.98 4.66 10 5 C9.01 5.495 9.01 5.495 8 6 C6.0546875 5.0390625 6.0546875 5.0390625 3.875 3.625 C3.15054688 3.16351562 2.42609375 2.70203125 1.6796875 2.2265625 C1.12539063 1.82179688 0.57109375 1.41703125 0 1 C0 0.67 0 0.34 0 0 Z " fill="#523CDC" transform="translate(551,1079)"/>
<path d="M0 0 C2.31 0.66 4.62 1.32 7 2 C7 2.66 7 3.32 7 4 C7.99 4.33 8.98 4.66 10 5 C9.01 5.495 9.01 5.495 8 6 C6.0546875 5.0390625 6.0546875 5.0390625 3.875 3.625 C3.15054688 3.16351562 2.42609375 2.70203125 1.6796875 2.2265625 C1.12539063 1.82179688 0.57109375 1.41703125 0 1 C0 0.67 0 0.34 0 0 Z " fill="#543DDD" transform="translate(539,1072)"/>
<path d="M0 0 C-0.75 1.9375 -0.75 1.9375 -2 4 C-4.125 4.75 -4.125 4.75 -6 5 C-6 4.01 -6 3.02 -6 2 C-2.25 0 -2.25 0 0 0 Z " fill="#7669FB" transform="translate(590,98)"/>
<path d="M0 0 C0 0.66 0 1.32 0 2 C-1.96147874 3.38938077 -3.96166576 4.7260411 -6 6 C-6.33 5.01 -6.66 4.02 -7 3 C-2.25 0 -2.25 0 0 0 Z " fill="#583FE6" transform="translate(619,806)"/>
<path d="M0 0 C0.66 0.33 1.32 0.66 2 1 C2 1.66 2 2.32 2 3 C0.02253397 3.73080266 -1.98072489 4.39421747 -4 5 C-4.66 4.67 -5.32 4.34 -6 4 C-4.02 2.68 -2.04 1.36 0 0 Z " fill="#776BFB" transform="translate(572,107)"/>
</svg>
